<svg width="234" height="33" viewBox="0 0 234 33" fill="none" xmlns="http://www.w3.org/2000/svg">
<g clip-path="url(#clip0_820_1228)">
<path d="M27.3094 28.4199L27.0399 31.1805C26.2015 31.5425 25.1834 31.8593 23.9856 32.1308C22.7878 32.4023 21.575 32.5984 20.3473 32.7191C19.1196 32.87 18.0266 32.9454 17.0684 32.9454C14.6429 32.9454 12.397 32.5381 10.3309 31.7235C8.2647 30.8788 6.45306 29.7172 4.89594 28.2389C3.36876 26.7606 2.17098 25.0258 1.30259 23.0346C0.434195 21.0133 0 18.8259 0 16.4727C0 14.1195 0.434195 11.9472 1.30259 9.95603C2.17098 7.93466 3.36876 6.18479 4.89594 4.70648C6.45306 3.22817 8.2647 2.08171 10.3309 1.26713C12.397 0.422378 14.6429 0 17.0684 0C18.0566 0 19.1645 0.0754243 20.3922 0.226273C21.62 0.377123 22.8177 0.588311 23.9856 0.859839C25.1534 1.1012 26.1416 1.38781 26.9501 1.71968L26.7255 4.25394H26.456C25.348 3.22817 23.9556 2.44375 22.2787 1.9007C20.6018 1.35764 18.8651 1.08611 17.0684 1.08611C14.3734 1.08611 11.9928 1.73476 9.92663 3.03206C7.89039 4.29919 6.28837 6.09428 5.12051 8.41737C3.98263 10.7103 3.41368 13.3954 3.41368 16.4727C3.41368 19.5802 3.98263 22.2804 5.12051 24.5733C6.28837 26.8662 7.89039 28.6613 9.92663 29.9586C11.9628 31.2257 14.3434 31.8593 17.0684 31.8593C19.1046 31.8593 20.9911 31.5274 22.7279 30.8637C24.4946 30.2 25.932 29.3854 27.0399 28.4199H27.3094Z" fill="#FFF4E3"/>
<path d="M36.2845 32.3111V0.632812H39.3387V15.2953H58.2037V0.632812H61.2582V32.3111H58.2037V16.3814H39.3387V32.3111H36.2845Z" fill="#FFF4E3"/>
<path d="M72.9548 0.632812H78.9737C82.1477 0.632812 84.603 1.31163 86.3401 2.66927C88.1068 3.99675 88.9898 5.86726 88.9898 8.28085C88.9898 10.1514 88.4359 11.7051 87.3281 12.9421C86.2499 14.1791 84.678 15.0087 82.6118 15.4311V15.7026C84.5882 16.0948 86.205 17.0301 87.4628 18.5084C88.7205 19.9867 89.6636 21.812 90.2924 23.9842C90.8616 25.9754 91.4155 27.5292 91.9545 28.6454C92.5233 29.7316 93.1373 30.516 93.7962 30.9987C94.4848 31.4814 95.2933 31.8284 96.2215 32.0395V32.3111H94.3802C93.0624 32.3111 91.9694 32.0697 91.1012 31.587C90.2628 31.1043 89.5441 30.2897 88.9449 29.1432C88.3461 27.9968 87.7774 26.4129 87.2383 24.3915C86.3698 21.284 85.217 19.0816 83.7798 17.7843C82.3425 16.487 80.5906 15.8384 78.5244 15.8384H78.2551V15.0238H78.5244C83.3453 15.0238 85.7561 12.7912 85.7561 8.3261C85.7561 3.92131 83.4952 1.71892 78.9737 1.71892H76.009V32.3111H72.9548V0.632812Z" fill="#FFF4E3"/>
<path d="M98.6503 16.4727C98.6503 14.1496 99.0543 11.9925 99.8627 10.0013C100.701 7.97992 101.854 6.23005 103.322 4.75174C104.819 3.24325 106.555 2.08171 108.532 1.26713C110.538 0.422378 112.694 0 115 0C117.306 0 119.447 0.422378 121.423 1.26713C123.429 2.08171 125.166 3.24325 126.633 4.75174C128.131 6.23005 129.283 7.97992 130.092 10.0013C130.93 11.9925 131.349 14.1496 131.349 16.4727C131.349 18.7958 130.93 20.968 130.092 22.9894C129.283 24.9806 128.131 26.7304 126.633 28.2389C125.166 29.7172 123.429 30.8788 121.423 31.7235C119.447 32.5381 117.306 32.9454 115 32.9454C112.694 32.9454 110.538 32.5381 108.532 31.7235C106.555 30.8788 104.819 29.7172 103.322 28.2389C101.854 26.7304 100.701 24.9806 99.8627 22.9894C99.0543 20.968 98.6503 18.7958 98.6503 16.4727ZM102.064 16.4727C102.064 19.55 102.603 22.2502 103.681 24.5733C104.759 26.8662 106.271 28.6613 108.217 29.9586C110.164 31.2257 112.425 31.8593 115 31.8593C117.575 31.8593 119.836 31.2257 121.782 29.9586C123.729 28.6613 125.241 26.8511 126.319 24.528C127.397 22.2049 127.936 19.5199 127.936 16.4727C127.936 13.4255 127.397 10.7555 126.319 8.46262C125.241 6.13954 123.729 4.32935 121.782 3.03206C119.836 1.73476 117.575 1.08611 115 1.08611C112.425 1.08611 110.164 1.73476 108.217 3.03206C106.301 4.29919 104.789 6.09428 103.681 8.41737C102.603 10.7103 102.064 13.3954 102.064 16.4727Z" fill="#FFF4E3"/>
<path d="M140.095 32.3118L141.218 0H141.757L164.35 27.5148H164.619L163.631 0.633565H166.686L165.563 32.9454H165.024L142.431 5.43056H142.161L143.149 32.3118H140.095Z" fill="#FFF4E3"/>
<path d="M175.456 16.4727C175.456 14.1496 175.86 11.9925 176.669 10.0013C177.507 7.97992 178.66 6.23005 180.127 4.75174C181.624 3.24325 183.362 2.08171 185.338 1.26713C187.344 0.422378 189.5 0 191.806 0C194.111 0 196.253 0.422378 198.229 1.26713C200.235 2.08171 201.972 3.24325 203.439 4.75174C204.936 6.23005 206.089 7.97992 206.898 10.0013C207.736 11.9925 208.156 14.1496 208.156 16.4727C208.156 18.7958 207.736 20.968 206.898 22.9894C206.089 24.9806 204.936 26.7304 203.439 28.2389C201.972 29.7172 200.235 30.8788 198.229 31.7235C196.253 32.5381 194.111 32.9454 191.806 32.9454C189.5 32.9454 187.344 32.5381 185.338 31.7235C183.362 30.8788 181.624 29.7172 180.127 28.2389C178.66 26.7304 177.507 24.9806 176.669 22.9894C175.86 20.968 175.456 18.7958 175.456 16.4727ZM178.87 16.4727C178.87 19.55 179.409 22.2502 180.487 24.5733C181.565 26.8662 183.077 28.6613 185.023 29.9586C186.97 31.2257 189.23 31.8593 191.806 31.8593C194.381 31.8593 196.642 31.2257 198.588 29.9586C200.535 28.6613 202.047 26.8511 203.125 24.528C204.203 22.2049 204.742 19.5199 204.742 16.4727C204.742 13.4255 204.203 10.7555 203.125 8.46262C202.047 6.13954 200.535 4.32935 198.588 3.03206C196.642 1.73476 194.381 1.08611 191.806 1.08611C189.23 1.08611 186.97 1.73476 185.023 3.03206C183.107 4.29919 181.595 6.09428 180.487 8.41737C179.409 10.7103 178.87 13.3954 178.87 16.4727Z" fill="#FFF4E3"/>
<path d="M214.835 31.3162L215.104 28.6009H215.374C216.541 29.6267 217.859 30.4262 219.326 30.9994C220.793 31.5727 222.246 31.8593 223.683 31.8593C225.719 31.8593 227.366 31.3011 228.624 30.1849C229.882 29.0384 230.511 27.5148 230.511 25.6141C230.511 24.5582 230.271 23.5777 229.792 22.6726C229.343 21.7675 228.579 20.8473 227.501 19.9121C226.453 18.9768 225.001 17.9661 223.144 16.88C221.857 16.1258 220.629 15.3413 219.461 14.5267C218.293 13.682 217.335 12.7166 216.586 11.6304C215.838 10.5142 215.464 9.1867 215.464 7.64804C215.464 5.35515 216.287 3.51478 217.934 2.12697C219.581 0.708988 221.752 0 224.447 0C225.645 0 226.932 0.135764 228.31 0.407292C229.687 0.648651 230.75 0.965434 231.499 1.35764L231.274 3.8919H231.005C229.298 2.02137 227.112 1.08611 224.447 1.08611C222.531 1.08611 220.988 1.58391 219.82 2.57952C218.652 3.54495 218.069 4.85735 218.069 6.51667C218.069 7.75364 218.383 8.82466 219.012 9.72975C219.671 10.6047 220.509 11.4042 221.527 12.1282C222.545 12.8222 223.638 13.501 224.806 14.1647C226.154 14.9491 227.456 15.7788 228.714 16.6537C230.002 17.5287 231.05 18.5846 231.858 19.8215C232.697 21.0283 233.116 22.5519 233.116 24.3923C233.116 26.0818 232.727 27.5752 231.948 28.8725C231.169 30.1396 230.061 31.1352 228.624 31.8593C227.217 32.5834 225.57 32.9454 223.683 32.9454C222.485 32.9454 221.078 32.7945 219.461 32.4928C217.844 32.1912 216.302 31.7989 214.835 31.3162Z" fill="#FFF4E3"/>
</g>
<defs>
<clipPath id="clip0_820_1228">
<rect width="233.116" height="32.9454" fill="white"/>
</clipPath>
</defs>
</svg>
