<svg width="1253" height="110" viewBox="0 0 1253 110" fill="none" xmlns="http://www.w3.org/2000/svg">
<path d="M146.721 152.687L145.273 167.518C140.768 169.463 135.298 171.165 128.863 172.624C122.428 174.082 115.912 175.136 109.317 175.784C102.721 176.595 96.8484 177 91.7004 177C78.6693 177 66.6034 174.812 55.5029 170.435C44.4023 165.897 34.6692 159.657 26.3036 151.714C18.0988 143.772 11.6636 134.452 6.99819 123.754C2.33272 112.894 0 101.143 0 88.5C0 75.8571 2.33272 64.1868 6.99819 53.489C11.6636 42.6292 18.0988 33.228 26.3036 25.2857C34.6692 17.3434 44.4023 11.1841 55.5029 6.80769C66.6034 2.26924 78.6693 0 91.7004 0C97.0094 0 102.962 0.405219 109.558 1.21566C116.154 2.02611 122.589 3.16071 128.863 4.61951C135.137 5.91621 140.446 7.45604 144.79 9.23901L143.584 22.8544H142.136C136.183 17.3434 128.702 13.1291 119.693 10.2115C110.684 7.29396 101.353 5.83517 91.7004 5.83517C77.2214 5.83517 64.4315 9.32006 53.3311 16.2898C42.3913 23.0975 33.7844 32.7417 27.5101 45.2225C21.3968 57.5411 18.3401 71.967 18.3401 88.5C18.3401 105.195 21.3968 119.702 27.5101 132.021C33.7844 144.339 42.3913 153.984 53.3311 160.953C64.2706 167.761 77.0606 171.165 91.7004 171.165C102.64 171.165 112.775 169.382 122.106 165.816C131.598 162.25 139.32 157.874 145.273 152.687H146.721Z" fill="#59231F"/>
<path d="M194.939 173.596V3.40319H211.348V82.1779H312.7V3.40319H329.111V173.596H312.7V88.0131H211.348V173.596H194.939Z" fill="#59231F"/>
<path d="M391.952 3.40319H424.289C441.341 3.40319 454.533 7.05017 463.865 14.3441C473.357 21.4761 478.101 31.5254 478.101 44.4925C478.101 54.542 475.125 62.8894 469.173 69.5351C463.38 76.1807 454.935 80.638 443.835 82.9073V84.3661C454.453 86.4732 463.139 91.498 469.896 99.4403C476.654 107.383 481.72 117.189 485.099 128.859C488.157 139.557 491.133 147.905 494.029 153.902C497.084 159.737 500.383 163.951 503.923 166.545C507.623 169.138 511.966 171.002 516.953 172.137V173.596H507.061C499.981 173.596 494.109 172.299 489.444 169.705C484.94 167.112 481.079 162.736 477.86 156.576C474.642 150.417 471.587 141.907 468.691 131.047C464.024 114.352 457.831 102.52 450.109 95.5502C442.388 88.5805 432.975 85.0955 421.875 85.0955H420.428V80.7191H421.875C447.775 80.7191 460.727 68.7246 460.727 44.7356C460.727 21.0707 448.581 9.23836 424.289 9.23836H408.361V173.596H391.952V3.40319Z" fill="#59231F"/>
<path d="M530.003 88.5C530.003 76.0192 532.173 64.4299 536.517 53.7321C541.021 42.8723 547.216 33.4711 555.1 25.5288C563.142 17.4244 572.473 11.1841 583.091 6.80769C593.87 2.26924 605.453 0 617.841 0C630.229 0 641.732 2.26924 652.348 6.80769C663.128 11.1841 672.458 17.4244 680.342 25.5288C688.386 33.4711 694.579 42.8723 698.923 53.7321C703.428 64.4299 705.68 76.0192 705.68 88.5C705.68 100.981 703.428 112.651 698.923 123.511C694.579 134.209 688.386 143.61 680.342 151.714C672.458 159.657 663.128 165.897 652.348 170.435C641.732 174.812 630.229 177 617.841 177C605.453 177 593.87 174.812 583.091 170.435C572.473 165.897 563.142 159.657 555.1 151.714C547.216 143.61 541.021 134.209 536.517 123.511C532.173 112.651 530.003 100.981 530.003 88.5ZM548.342 88.5C548.342 105.033 551.237 119.54 557.029 132.021C562.821 144.339 570.946 153.984 581.403 160.953C591.859 167.761 604.006 171.165 617.841 171.165C631.676 171.165 643.823 167.761 654.28 160.953C664.737 153.984 672.861 144.258 678.653 131.777C684.444 119.297 687.34 104.871 687.34 88.5C687.34 72.1291 684.444 57.7843 678.653 45.4657C672.861 32.9848 664.737 23.2596 654.28 16.2898C643.823 9.32006 631.676 5.83517 617.841 5.83517C604.006 5.83517 591.859 9.32006 581.403 16.2898C571.105 23.0975 562.981 32.7417 557.029 45.2225C551.237 57.5411 548.342 71.967 548.342 88.5Z" fill="#59231F"/>
<path d="M752.662 173.596L758.696 0H761.592L882.975 147.824H884.422L879.112 3.40385H895.523L889.489 177H886.595L765.212 29.1758H763.765L769.073 173.596H752.662Z" fill="#59231F"/>
<path d="M942.643 88.5C942.643 76.0192 944.816 64.4299 949.159 53.7321C953.664 42.8723 959.857 33.4711 967.74 25.5288C975.783 17.4244 985.115 11.1841 995.734 6.80769C1006.51 2.26924 1018.09 0 1030.48 0C1042.87 0 1054.37 2.26924 1064.99 6.80769C1075.77 11.1841 1085.1 17.4244 1092.98 25.5288C1101.03 33.4711 1107.22 42.8723 1111.57 53.7321C1116.07 64.4299 1118.32 76.0192 1118.32 88.5C1118.32 100.981 1116.07 112.651 1111.57 123.511C1107.22 134.209 1101.03 143.61 1092.98 151.714C1085.1 159.657 1075.77 165.897 1064.99 170.435C1054.37 174.812 1042.87 177 1030.48 177C1018.09 177 1006.51 174.812 995.734 170.435C985.115 165.897 975.783 159.657 967.74 151.714C959.857 143.61 953.664 134.209 949.159 123.511C944.816 112.651 942.643 100.981 942.643 88.5ZM960.983 88.5C960.983 105.033 963.879 119.54 969.67 132.021C975.462 144.339 983.587 153.984 994.043 160.953C1004.5 167.761 1016.65 171.165 1030.48 171.165C1044.32 171.165 1056.46 167.761 1066.92 160.953C1077.38 153.984 1085.5 144.258 1091.29 131.777C1097.09 119.297 1099.98 104.871 1099.98 88.5C1099.98 72.1291 1097.09 57.7843 1091.29 45.4657C1085.5 32.9848 1077.38 23.2596 1066.92 16.2898C1056.46 9.32006 1044.32 5.83517 1030.48 5.83517C1016.65 5.83517 1004.5 9.32006 994.043 16.2898C983.748 23.0975 975.624 32.7417 969.67 45.2225C963.879 57.5411 960.983 71.967 960.983 88.5Z" fill="#59231F"/>
<path d="M1154.2 168.247L1155.65 153.659H1157.1C1163.37 159.17 1170.45 163.466 1178.34 166.545C1186.22 169.625 1194.02 171.165 1201.74 171.165C1212.68 171.165 1221.53 168.166 1228.29 162.169C1235.05 156.01 1238.42 147.824 1238.42 137.613C1238.42 131.939 1237.14 126.672 1234.56 121.809C1232.15 116.946 1228.05 112.003 1222.26 106.978C1216.63 101.953 1208.82 96.5234 1198.85 90.6882C1191.93 86.6361 1185.33 82.4217 1179.06 78.0453C1172.79 73.5069 1167.64 68.3201 1163.62 62.4849C1159.59 56.4877 1157.58 49.3558 1157.58 41.0893C1157.58 28.7707 1162.01 18.8832 1170.85 11.4272C1179.7 3.80906 1191.37 0 1205.85 0C1212.28 0 1219.2 0.729396 1226.6 2.18819C1234 3.4849 1239.71 5.18682 1243.73 7.29396L1242.53 20.9093H1241.08C1231.91 10.8599 1220.16 5.83517 1205.85 5.83517C1195.55 5.83517 1187.27 8.50961 1180.99 13.8585C1174.72 19.0453 1171.58 26.0962 1171.58 35.011C1171.58 41.6567 1173.27 47.4107 1176.65 52.2734C1180.19 56.974 1184.69 61.2692 1190.16 65.1593C1195.63 68.8874 1201.5 72.5344 1207.78 76.1003C1215.02 80.3146 1222.02 84.7719 1228.77 89.4725C1235.69 94.1731 1241.32 99.8461 1245.66 106.492C1250.17 112.975 1252.42 121.161 1252.42 131.048C1252.42 140.125 1250.33 148.148 1246.15 155.118C1241.96 161.926 1236.01 167.275 1228.29 171.165C1220.73 175.055 1211.88 177 1201.74 177C1195.31 177 1187.75 176.189 1179.06 174.569C1170.37 172.948 1162.09 170.841 1154.2 168.247Z" fill="#59231F"/>
</svg>
