<svg width="222" height="28" viewBox="0 0 222 28" fill="none" xmlns="http://www.w3.org/2000/svg">
<path d="M23.21 24.1538L22.981 26.5C22.2684 26.8077 21.4031 27.0769 20.3851 27.3077C19.3671 27.5385 18.3364 27.7051 17.293 27.8077C16.2496 27.9359 15.3206 28 14.5063 28C12.4449 28 10.5361 27.6538 8.78012 26.9615C7.02409 26.2436 5.4844 25.2564 4.16102 24C2.86308 22.7436 1.8451 21.2692 1.10706 19.5769C0.369019 17.859 0 16 0 14C0 12 0.369019 10.1538 1.10706 8.46154C1.8451 6.7436 2.86308 5.2564 4.16102 4C5.4844 2.74359 7.02409 1.76923 8.78012 1.07692C10.5361 0.358975 12.4449 0 14.5063 0C15.3461 0 16.2878 0.0641025 17.3312 0.192307C18.3746 0.320514 19.3926 0.5 20.3851 0.730769C21.3777 0.935898 22.2175 1.17949 22.9046 1.46154L22.7138 3.61538H22.4847C21.5431 2.74359 20.3597 2.07692 18.9345 1.61538C17.5093 1.15385 16.0333 0.923077 14.5063 0.923077C12.2158 0.923077 10.1926 1.47436 8.43655 2.57692C6.70597 3.65385 5.34443 5.17948 4.35188 7.15385C3.3848 9.10255 2.90126 11.3846 2.90126 14C2.90126 16.641 3.3848 18.9359 4.35188 20.8846C5.34443 22.8333 6.70597 24.359 8.43655 25.4615C10.1671 26.5385 12.1904 27.0769 14.5063 27.0769C16.2369 27.0769 17.8402 26.7949 19.3162 26.2308C20.8178 25.6667 22.0394 24.9744 22.981 24.1538H23.21Z" fill="#FFF4E3"/>
<path d="M34.7222 27.4621V0.539062H37.3179V13.0006H53.3511V0.539062H55.9471V27.4621H53.3511V13.9237H37.3179V27.4621H34.7222Z" fill="#FFF4E3"/>
<path d="M67.4592 0.539062H72.5746C75.2722 0.539062 77.3589 1.11599 78.8352 2.26983C80.3368 3.39805 81.0872 4.98777 81.0872 7.03906C81.0872 8.62882 80.6165 9.94931 79.6749 11.0006C78.7586 12.0519 77.4226 12.757 75.6666 13.116V13.3468C77.3463 13.6801 78.7205 14.475 79.7894 15.7314C80.8583 16.9878 81.6598 18.5391 82.1943 20.3852C82.678 22.0775 83.1488 23.398 83.6069 24.3468C84.0903 25.2698 84.6122 25.9365 85.1722 26.3468C85.7574 26.757 86.4445 27.0519 87.2334 27.2314V27.4621H85.6685C84.5485 27.4621 83.6195 27.257 82.8817 26.8468C82.1691 26.4365 81.5583 25.7442 81.0491 24.7698C80.5402 23.7955 80.0568 22.4493 79.5986 20.7314C78.8605 18.0904 77.8808 16.2185 76.6592 15.116C75.4377 14.0134 73.9488 13.4621 72.1928 13.4621H71.9638V12.7698H72.1928C76.29 12.7698 78.3389 10.8724 78.3389 7.07752C78.3389 3.33392 76.4174 1.46214 72.5746 1.46214H70.0549V27.4621H67.4592V0.539062Z" fill="#FFF4E3"/>
<path d="M93.7454 14C93.7454 12.0256 94.0887 10.1923 94.7758 8.5C95.4884 6.78206 96.4684 5.29486 97.7155 4.03846C98.9878 2.75641 100.464 1.76923 102.144 1.07692C103.849 0.358975 105.681 0 107.641 0C109.6 0 111.42 0.358975 113.1 1.07692C114.805 1.76923 116.281 2.75641 117.528 4.03846C118.8 5.29486 119.78 6.78206 120.467 8.5C121.18 10.1923 121.536 12.0256 121.536 14C121.536 15.9744 121.18 17.8205 120.467 19.5385C119.78 21.2308 118.8 22.7179 117.528 24C116.281 25.2564 114.805 26.2436 113.1 26.9615C111.42 27.6538 109.6 28 107.641 28C105.681 28 103.849 27.6538 102.144 26.9615C100.464 26.2436 98.9878 25.2564 97.7155 24C96.4684 22.7179 95.4884 21.2308 94.7758 19.5385C94.0887 17.8205 93.7454 15.9744 93.7454 14ZM96.6466 14C96.6466 16.6154 97.1044 18.9102 98.0207 20.8846C98.9371 22.8333 100.222 24.359 101.876 25.4615C103.531 26.5385 105.452 27.0769 107.641 27.0769C109.829 27.0769 111.751 26.5385 113.405 25.4615C115.059 24.359 116.344 22.8205 117.261 20.8462C118.177 18.8718 118.635 16.5898 118.635 14C118.635 11.4102 118.177 9.14102 117.261 7.19231C116.344 5.21794 115.059 3.67948 113.405 2.57692C111.751 1.47436 109.829 0.923077 107.641 0.923077C105.452 0.923077 103.531 1.47436 101.876 2.57692C100.248 3.65385 98.9623 5.17948 98.0207 7.15385C97.1044 9.10255 96.6466 11.3846 96.6466 14Z" fill="#FFF4E3"/>
<path d="M133.048 27.4615L134.003 0H134.461L153.663 23.3846H153.892L153.052 0.538462H155.648L154.693 28H154.235L135.034 4.61538H134.805L135.644 27.4615H133.048Z" fill="#FFF4E3"/>
<path d="M167.16 14C167.16 12.0256 167.504 10.1923 168.191 8.5C168.903 6.78206 169.883 5.29486 171.13 4.03846C172.402 2.75641 173.879 1.76923 175.558 1.07692C177.263 0.358975 179.096 0 181.055 0C183.015 0 184.835 0.358975 186.514 1.07692C188.22 1.76923 189.696 2.75641 190.943 4.03846C192.215 5.29486 193.195 6.78206 193.882 8.5C194.595 10.1923 194.951 12.0256 194.951 14C194.951 15.9744 194.595 17.8205 193.882 19.5385C193.195 21.2308 192.215 22.7179 190.943 24C189.696 25.2564 188.22 26.2436 186.514 26.9615C184.835 27.6538 183.015 28 181.055 28C179.096 28 177.263 27.6538 175.558 26.9615C173.879 26.2436 172.402 25.2564 171.13 24C169.883 22.7179 168.903 21.2308 168.191 19.5385C167.504 17.8205 167.16 15.9744 167.16 14ZM170.061 14C170.061 16.6154 170.519 18.9102 171.435 20.8846C172.352 22.8333 173.637 24.359 175.291 25.4615C176.945 26.5385 178.867 27.0769 181.055 27.0769C183.244 27.0769 185.165 26.5385 186.82 25.4615C188.474 24.359 189.759 22.8205 190.675 20.8462C191.592 18.8718 192.05 16.5898 192.05 14C192.05 11.4102 191.592 9.14102 190.675 7.19231C189.759 5.21794 188.474 3.67948 186.82 2.57692C185.165 1.47436 183.244 0.923077 181.055 0.923077C178.867 0.923077 176.945 1.47436 175.291 2.57692C173.662 3.65385 172.377 5.17948 171.435 7.15385C170.519 9.10255 170.061 11.3846 170.061 14Z" fill="#FFF4E3"/>
<path d="M206.463 26.6154L206.692 24.3077H206.921C207.914 25.1795 209.034 25.859 210.28 26.3462C211.527 26.8333 212.762 27.0769 213.983 27.0769C215.714 27.0769 217.114 26.6026 218.183 25.6538C219.251 24.6795 219.786 23.3846 219.786 21.7692C219.786 20.8718 219.582 20.0385 219.175 19.2692C218.793 18.5 218.144 17.7179 217.228 16.9231C216.338 16.1282 215.103 15.2692 213.525 14.3462C212.431 13.7051 211.387 13.0385 210.395 12.3462C209.403 11.6282 208.588 10.8077 207.952 9.88461C207.316 8.93591 206.998 7.80769 206.998 6.5C206.998 4.55129 207.697 2.98718 209.097 1.80769C210.497 0.602563 212.342 0 214.632 0C215.651 0 216.745 0.115385 217.915 0.346154C219.086 0.551283 219.99 0.820514 220.626 1.15385L220.435 3.30769H220.206C218.755 1.71795 216.897 0.923077 214.632 0.923077C213.004 0.923077 211.693 1.34615 210.7 2.19231C209.708 3.01282 209.212 4.12822 209.212 5.53846C209.212 6.58975 209.479 7.5 210.013 8.26923C210.573 9.01283 211.286 9.69231 212.151 10.3077C213.016 10.8974 213.945 11.4744 214.938 12.0385C216.083 12.7051 217.19 13.4102 218.259 14.1538C219.353 14.8974 220.244 15.7949 220.931 16.8462C221.644 17.8718 222 19.1667 222 20.7308C222 22.1667 221.669 23.4359 221.007 24.5385C220.346 25.6154 219.404 26.4615 218.183 27.0769C216.987 27.6923 215.587 28 213.983 28C212.965 28 211.769 27.8718 210.395 27.6154C209.021 27.359 207.71 27.0256 206.463 26.6154Z" fill="#FFF4E3"/>
</svg>
